<?xml version="1.0" standalone="no"?><!DOCTYPE svg PUBLIC "-//W3C//DTD SVG 1.1//EN" "http://www.w3.org/Graphics/SVG/1.1/DTD/svg11.dtd"><svg t="1761181931942" class="icon" viewBox="0 0 1024 1024" version="1.1" xmlns="http://www.w3.org/2000/svg" p-id="1558" width="64" height="64" xmlns:xlink="http://www.w3.org/1999/xlink"><path d="M515.84 952.32a436.16 436.16 0 1 1 435.84-436.16 436.16 436.16 0 0 1-435.84 436.16z" fill="#3385FF" p-id="1559"></path><path d="M801.6 704s-91.2-80.96-96-87.36a215.36 215.36 0 0 0 0-200.64q11.2-12.48 94.08-90.24a342.4 342.4 0 0 1 0 378.24zM708.48 233.28s-76.8 84.8-87.68 96a212.48 212.48 0 0 0-104.96-27.52 215.68 215.68 0 1 0 0 431.04 213.44 213.44 0 0 0 102.4-25.92c8.64 8 38.4 39.68 88.96 96a342.72 342.72 0 1 1 0-567.04z" fill="#FFFFFF" p-id="1560"></path></svg>